<svg xmlns="http://www.w3.org/2000/svg" viewBox="0 0 173.11 172.35"><defs><style>.cls-1{fill:#f15f2a;}</style></defs><g id="Layer_2" data-name="Layer 2"><g id="Layer_1-2" data-name="Layer 1"><path class="cls-1" d="M99.65,149.26c-4.3,8.92-10.34,16.31-17.35,23.09a74.75,74.75,0,0,1-16.1-24.92,84.51,84.51,0,0,1-26.68,11,73.92,73.92,0,0,1-1.3-29.69c-10.06.31-19.91-.21-29.6-3.42A83.35,83.35,0,0,1,23.23,99.09C14.44,94.29,6.41,88.6,0,80.59c7.26-7,16.2-11.44,25.74-15.29-5.19-8.6-9.19-17.56-10.87-27.7a80,80,0,0,1,29.75.21c0-.79.05-1.46.11-2.13.44-4.75.66-9.54,1.4-14.24C46.74,17.61,48,13.87,49,10.1c.52-2,.82-2.26,2.72-1.26,5.13,2.73,10.2,5.57,15.25,8.44,1.59.91,3,2,4.59,3.1C76,13.14,80.36,6,86.63,0a102.73,102.73,0,0,1,16.88,24.87c8.3-5.69,17-10.29,27-12.5a83.24,83.24,0,0,1,1.95,29.18c5.18.21,10.18.17,15.12.66s9.77,1.51,15.17,2.38c-2.14,5-3.85,9.7-6.11,14.12s-5.1,8.6-7.79,13.06C158,75.89,165.75,82,173.11,89c-7.59,7-16.24,12-25.69,16.27a91.16,91.16,0,0,1,12.05,27.18c-9.89,1.91-19.77,1.62-29.84,1.61a84.06,84.06,0,0,1-3.52,28.61C116.3,160.05,107.74,155.27,99.65,149.26Zm24.94-89.13a.75.75,0,0,0,.06.13s.06,0,.09,0l-.18-.09c1.22-3.46,2.5-6.9,3.62-10.39a33.29,33.29,0,0,0,.79-4.56c-2,.55-3.47,1-5,1.35A52.83,52.83,0,0,0,110.2,51.8,2.62,2.62,0,0,0,109,53.42c-.45,2.89-.74,5.81-1.09,8.73-.15,1.28-.33,2.55-.51,3.9,4.45-.29,8.61-.6,12.78-.81a2.81,2.81,0,0,0,2.7-1.95C123.36,62.2,124,61.18,124.59,60.13Zm34.34-13.55c-3.16-.5-6.05-.92-8.93-1.42a49.86,49.86,0,0,0-16.17-.51,2.35,2.35,0,0,0-2.27,2.16c-1,3.88-2,7.76-3.21,11.57-.72,2.26-1.84,4.38-2.84,6.68.54.1.92.21,1.31.24A58.25,58.25,0,0,1,144,69.64c1.52.63,2.23.27,3.08-.93A86.36,86.36,0,0,0,156,53.56C156.94,51.32,157.88,49.05,158.93,46.58Zm-35,63.19a50.18,50.18,0,0,1,2.3,5.79c1.07,4,2,8.15,2.78,12.27.49,2.61.35,2.73,2.87,2.91,3.44.24,6.89.62,10.32.55,4.63-.1,9.26-.56,13.89-.87l.43-.6c-2-4.74-3.93-9.53-6.12-14.19a98.21,98.21,0,0,0-4.87-8.57c-.41-.67-.82-1.11-2.05-.69a63.06,63.06,0,0,1-9.71,2.36C130.58,109.28,127.3,109.43,124,109.77ZM11.59,123.83c5.06.7,9.52,1.45,14,1.88,3.6.33,7.23.31,10.84.35,1.38,0,2.41-.23,2.84-2.1a88.1,88.1,0,0,1,3.47-11,70,70,0,0,1,3.42-6.82,76.1,76.1,0,0,1-7.8-1.42c-3.75-1.07-7.42-2.44-11.09-3.77-.86-.32-1.49-.5-2.1.33-1.53,2.09-3.17,4.1-4.59,6.26s-2.81,4.59-4.11,6.95C14.88,117.37,13.39,120.35,11.59,123.83ZM129,14.89l-5.76,2.57A112.4,112.4,0,0,0,106,27.18c-1,.7-1.11,1.3-.73,2.42a71.19,71.19,0,0,1,2.29,7.94c.72,3.41,1.15,6.87,1.72,10.46,1-.36,2.06-.69,3.08-1.17a59.53,59.53,0,0,1,16.19-4.45,1.81,1.81,0,0,0,1.19-1.2c.22-2.75.38-5.52.39-8.27,0-2.41-.17-4.83-.34-7.23C129.58,22.26,129.29,18.85,129,14.89ZM49.67,61.62c-3.34-6.67-4-13.78-4.79-21-8.9-1.44-17.82-2.11-27.19-.84,1.4,3.74,2.56,7.34,4.1,10.77,1.83,4.09,4,8,6,12,.79,1.62,1.71,2.12,3.34,1.15a7.07,7.07,0,0,1,2-.61A60.91,60.91,0,0,1,49.67,61.62ZM130.58,87.8c.46.37.75.63,1.07.86a59.22,59.22,0,0,1,13.32,13,2.15,2.15,0,0,0,2,.49c4.86-2.56,9.72-5.14,14.44-7.93,2.55-1.51,4.84-3.45,7.29-5.24a48.72,48.72,0,0,0-5.29-4.81c-4.91-3.3-10-6.32-14.94-9.57-1.23-.8-1.87-.55-2.69.44A62,62,0,0,1,130.58,87.8ZM41.74,83.37c-.53-.45-.92-.77-1.29-1.11-2.13-1.93-4.4-3.73-6.35-5.83C31.87,74,30,71.34,27.84,68.82a1.64,1.64,0,0,0-1.34-.53c-2.31.85-4.63,1.72-6.85,2.79-2.47,1.2-4.87,2.57-7.24,4-3,1.75-5.86,3.62-8.89,5.51a12.47,12.47,0,0,0,1.16,1.26c4.37,3.35,8.7,6.76,13.16,10,2.13,1.54,4.52,2.72,6.78,4.08a1.42,1.42,0,0,0,2.1-.33,42.56,42.56,0,0,1,10.43-9.23C38.67,85.45,40.12,84.42,41.74,83.37Zm82.64,76.25a12.87,12.87,0,0,0,.57-1.51,89.67,89.67,0,0,0,2-24c0-.38-.66-.94-1.12-1.07-3.52-1-7.11-1.84-10.58-3-2.81-.93-5.49-2.26-8.31-3.45-.86,5.77-1.91,11.5-4.49,16.85-1.2,2.48-.73,3.52,1.73,5,3.25,1.94,6.45,4,9.76,5.8S120.75,157.76,124.38,159.62Zm-42.09,9.15c1.38-1.45,2.48-2.53,3.5-3.68a79.89,79.89,0,0,0,11-15.83,2.29,2.29,0,0,0-.6-3.33,51.11,51.11,0,0,1-11-12.62L84,131.19a65.26,65.26,0,0,1-4.54,5.39c-2.75,2.62-5.64,5.09-8.58,7.49-1.3,1.06-1.65,2-.86,3.53,1.77,3.34,3.3,6.82,5.2,10.08C77.32,161.35,79.75,164.84,82.29,168.77ZM61.37,124c-2.95.95-6,2.14-9.12,2.89a81.33,81.33,0,0,1-9,1.35c-1,.12-1.51.38-1.56,1.54-.11,2.12-.42,4.24-.65,6.36a71.16,71.16,0,0,0,0,15.44c.13,1.22.2,2.45.3,3.78,1-.33,1.68-.6,2.39-.81A76.73,76.73,0,0,0,64,145.74a1.6,1.6,0,0,0,.85-2.2,60.41,60.41,0,0,1-2.11-8C62.11,131.7,61.81,127.79,61.37,124ZM86.77,3.43a32.93,32.93,0,0,0-2.66,3.2q-4.42,7.08-8.71,14.25c-1.13,1.89-.79,2.41.83,3.9a102.91,102.91,0,0,1,7.36,7.41c1.85,2.08,3.4,4.44,5.16,6.77a30.8,30.8,0,0,1,2.57-3.3c2.9-2.88,5.91-5.65,8.83-8.51.36-.35.72-1.12.57-1.48a61.65,61.65,0,0,0-3.13-6.5c-1.43-2.48-3-4.86-4.66-7.21C91,9.18,89,6.47,86.77,3.43ZM51.38,11.26a7.15,7.15,0,0,0-.44,1.11c-.73,4.45-1.6,8.89-2.11,13.37-.42,3.77-.38,7.59-.64,11.37-.07,1.12.38,1.51,1.35,1.79,2.15.61,4.29,1.26,6.39,2,2.73,1,5.43,2.05,8.2,3.1a4.12,4.12,0,0,0,.25-.75c1.06-6.72,2.46-13.33,5.65-19.44a1.31,1.31,0,0,0-.13-1.2,13.26,13.26,0,0,0-2.25-1.85c-2.35-1.5-4.71-3-7.12-4.38C57.57,14.66,54.56,13,51.38,11.26Zm22,14.11a4.38,4.38,0,0,0-.51.67,63.3,63.3,0,0,0-4.93,18.3,3.23,3.23,0,0,0,1.81,3.73,27.86,27.86,0,0,1,3.61,2.68c2.06,1.64,4.09,3.31,6,4.83,2.31-4.24,4.47-8.44,6.87-12.49.83-1.38.13-2.27-.32-3.3-.24-.55-.81-.94-1.15-1.45A62.17,62.17,0,0,0,73.36,25.37Zm70.66,47c-2.63-.85-4.91-1.76-7.27-2.3-4-.9-8-1.61-12-2.25a2.57,2.57,0,0,0-1.89,1c-1,1.3-1.78,2.81-2.78,4.13-1.73,2.29-3.56,4.5-5.32,6.71,4.14,2,8.13,4,12.17,5.9a2.2,2.2,0,0,0,1.72-.11,44.53,44.53,0,0,0,5.27-3.27C137.55,79.48,141.11,76.64,144,72.41Zm-1.33,31.37c-.12-.45-.1-.92-.32-1.18a41.74,41.74,0,0,0-3.68-4.16q-4.77-4.35-9.75-8.46a2.45,2.45,0,0,0-2.07-.26c-3.85,1.46-7.66,3-11.47,4.59a6.7,6.7,0,0,0-1.11.71c.19.31.3.51.43.7,2.34,3.54,4.65,7.1,7.07,10.58a2.45,2.45,0,0,0,1.77.64c1.41,0,2.81-.17,4.22-.22A46.32,46.32,0,0,0,142.69,103.78ZM126.63,130a59.78,59.78,0,0,0-5.84-19.48,1.53,1.53,0,0,0-1.72-1,52.39,52.39,0,0,1-6.37-.41c-2.14-.21-4.27-.52-6.24-.76.15,4.44.25,8.7.47,13A2.07,2.07,0,0,0,108,122.7c3.66,1.77,7.32,3.59,11.08,5.13A72.67,72.67,0,0,0,126.63,130ZM76.82,114.87c-3.44,2.13-6.92,4.26-10.35,6.47a2.13,2.13,0,0,0-.88,1.55c.15,4.13.24,8.28.72,12.38.29,2.45,1.27,4.81,2,7.35a9.07,9.07,0,0,0,.92-.49,66.63,66.63,0,0,0,12.08-12.06c1-1.3,1.36-2.38.45-3.81a14.14,14.14,0,0,1-1-2.12C79.42,121,78.11,117.93,76.82,114.87ZM99.17,144a6.06,6.06,0,0,0,.69-1,57.26,57.26,0,0,0,4.19-17.37,2.71,2.71,0,0,0-1-1.94c-2.14-1.65-4.44-3.1-6.6-4.72-1.35-1-2.57-2.22-3.68-3.21-2.1,3.81-4.15,7.46-6.09,11.17a2.47,2.47,0,0,0,.16,1.87c2.28,4.93,6,8.78,9.61,12.74A34.12,34.12,0,0,0,99.17,144Zm-56.7-18.39c5.62-.51,10.56-2.13,15.53-3.76,2.89-1,5-2.17,4.45-5.67a1.59,1.59,0,0,1,.1-.51c.51-3.32,1-6.64,1.49-9.68-3.93,0-7.78.07-11.63,0A2.29,2.29,0,0,0,50,107.43c-2.27,5.09-4.53,10.19-6.74,15.3A19.91,19.91,0,0,0,42.47,125.65ZM57,92.23C53.59,90.32,50.26,88.5,47,86.61c-1.25-.71-2.32-1.24-3.75-.21-1.83,1.31-3.95,2.23-5.75,3.59-3.15,2.38-6.14,5-9.47,7.69,1,.48,1.45.77,2,1a77.33,77.33,0,0,0,14.28,4c2.79.51,5.18.78,6.41-2.45.05-.15.24-.25.34-.38C53,97.24,55.08,94.68,57,92.23ZM30.91,66.88A7.47,7.47,0,0,0,31.58,68q5.07,5.41,10.17,10.81c2.3,2.45,4.76,3.59,7.72,1,.19-.17.54-.16.81-.25l8.3-2.83c-.39-.66-.64-1.09-.9-1.51-1.94-3.13-4-6.23-5.8-9.41a2.1,2.1,0,0,0-2-1.25,63.72,63.72,0,0,0-15.29,1.26C33.42,66.09,32.25,66.51,30.91,66.88Zm65.35-10.2c3.12-2.12,6.33-4.28,9.49-6.51.25-.17.3-.82.24-1.22-.76-5.17-1.52-10.34-2.39-15.49a21.25,21.25,0,0,0-1.24-3.5A54.09,54.09,0,0,0,90.85,42.27a1.54,1.54,0,0,0,.06,1.22C92.64,47.83,94.41,52.16,96.26,56.68Zm-31.5,6.78a4.91,4.91,0,0,0,.08-.79c-.34-4.64-.64-9.28-1.09-13.92a2.69,2.69,0,0,0-1.23-2C58.69,45.1,54.8,43.55,50.9,42a12.84,12.84,0,0,0-2.42-.4,62.89,62.89,0,0,0,4.88,19.46,1.71,1.71,0,0,0,1.14.8C57.89,62.44,61.28,62.93,64.76,63.46ZM67.94,50.1l-.79.47c.46,4.14.89,8.28,1.43,12.4a2.83,2.83,0,0,0,1,2c2.25,1.11,4.61,2,7.08,3a30,30,0,0,1,1.08-5.78c.91-2.32.48-3.85-1.46-5.32C73.46,54.71,70.73,52.37,67.94,50.1Zm21.11-4.54-.85-.05c-1.78,4.19-3.57,8.37-5.31,12.57a1.51,1.51,0,0,0,0,1.25c1.45,2,3,4,4.51,6.07a48.76,48.76,0,0,1,4.59-5,2.92,2.92,0,0,0,1-3.92C91.58,52.91,90.35,49.22,89.05,45.56Zm35.32,42.32.08-.86c-3.66-1.58-7.32-3.16-11-4.71a1.38,1.38,0,0,0-1.12,0c-2.16,1.55-4.28,3.17-6.62,4.92a14.16,14.16,0,0,1,2.51,2c2.68,3.47,5.8,3.79,9.52,1.74C119.87,89.75,122.16,88.88,124.37,87.88ZM103.45,77.16c2.44.52,4.83,1.09,7.25,1.52a2,2,0,0,0,1.58-.6c2.41-2.94,4.75-5.93,7.1-8.92a15.23,15.23,0,0,0,.9-1.62c-4.19.58-8,1-11.77,1.68A3.73,3.73,0,0,0,106,70.7,66.86,66.86,0,0,0,103.45,77.16Zm15,29.87.49-.71c-2.52-3.48-5-7-7.59-10.44a1.13,1.13,0,0,0-.94-.24c-2.53.36-5,.78-7.64,1.19.9,2.47,1.77,4.93,2.7,7.38a1.11,1.11,0,0,0,.69.62C110.25,105.59,114.35,106.31,118.45,107Zm-15.11,13.23,1-.49c-.41-4-.81-7.92-1.24-11.87a.91.91,0,0,0-.49-.6c-2.41-1-4.85-1.93-7.28-2.9-.44,2.26-.88,4.44-1.26,6.63a1.44,1.44,0,0,0,.34,1.08C97.34,114.85,100.35,117.55,103.34,120.26Zm-37.8-2.69.84.46c3.14-2.29,6.28-4.57,9.4-6.89a1.13,1.13,0,0,0,.35-.91c-.3-2.48-.66-5-1-7.29-2,.51-4,1-5.91,1.52A2,2,0,0,0,68,105.58C67.09,109.56,66.33,113.57,65.54,117.57Zm18.74,6.49.86.09c1.58-3.47,3.19-6.93,4.7-10.43a1.9,1.9,0,0,0-.41-1.49c-1.4-2-2.87-3.85-4.33-5.78A53.41,53.41,0,0,1,81,111c-.64.58-1,1-.73,1.75C81.58,116.53,82.93,120.29,84.28,124.06ZM48.75,83.61l.06.7c3.42,1.58,6.84,3.18,10.29,4.72.47.21,1.25.41,1.59.17,2-1.38,3.94-2.9,5.94-4.41a8.84,8.84,0,0,1-2.1-1.63c-2.42-3.62-5.55-3.68-9.09-2a.85.85,0,0,1-.17.06Zm19.9,11.16c-2.34-.4-4.64-.82-7-1.17a1.37,1.37,0,0,0-1.06.32c-2.65,2.94-5.26,5.9-8.21,9.25A45.8,45.8,0,0,0,65,102.32c.33-.06.67-.6.85-1C66.78,99.19,67.69,97,68.65,94.77Zm37.55-40-.71-.36c-2.11,1.55-4.18,3.17-6.35,4.63-1.67,1.13-2.62,2.32-2,4.52a40.55,40.55,0,0,1,.75,5.54c2-.71,3.94-1.34,5.8-2a1.33,1.33,0,0,0,.65-.9C105,62.39,105.58,58.6,106.2,54.8ZM55.62,65l-.49.59c2.32,3.25,4.62,6.51,7,9.74a1.36,1.36,0,0,0,1,.54c1.78-.09,3.56-.27,5.34-.42-.83-2.57-1.56-5-2.4-7.37-.18-.52-.65-1.21-1.1-1.31C61.83,66.05,58.72,65.52,55.62,65Zm39-1.53-.55-.2C92.68,64.81,91.24,66.35,90,68a3.12,3.12,0,0,0-.68,2.15A24.88,24.88,0,0,0,90.7,74c1.54-1.59,3.5-2.78,4.08-4.45S94.72,65.47,94.61,63.42Zm14.9,17.73C103.33,79,99.91,80,98.59,83.86c1.17.47,2.33,1,3.52,1.38a1.71,1.71,0,0,0,1.27.06C105.34,84,107.25,82.7,109.51,81.15Zm-1.05,12.71.32-1c-2-1.41-3.92-2.84-5.91-4.21a1.33,1.33,0,0,0-1,0c-1.24.4-2.46.84-3.85,1.33.86,1.12,1.59,2.2,2.46,3.17a2.3,2.3,0,0,0,1.46.68C104.12,93.9,106.29,93.86,108.46,93.86ZM70,68.25c.46,5.45,3,8.22,7.27,8.24-1-1.75.57-4.19-1.55-5.48C74,70,72.12,69.25,70,68.25Zm11.13-5.71c-.35,2.63-.67,4.94-1,7.26a1,1,0,0,0,.24.78c1,.89,2,1.74,3,2.62C86.07,68.79,85.55,66.09,81.15,62.54ZM94.72,95.77c.36,1.67.2,3.77,1.14,4.6,1.61,1.41,3.93,2,5.94,3a16.63,16.63,0,0,0-1.31-5.1,3.94,3.94,0,0,0-1.94-1.9A18.14,18.14,0,0,0,94.72,95.77ZM69.38,101l.56.45c1.74-.6,3.48-1.19,5.21-1.81.26-.09.6-.28.66-.49.42-1.58.78-3.18,1.23-5.09-1.65.43-3.54.36-4.36,1.26C71.24,96.94,70.44,99.12,69.38,101Zm4.85-12.59c-1.66-.41-3.41-1.41-4.78-1-1.85.52-4.06,1.23-5,3.57,2,.4,3.85.78,5.72,1.11a1.17,1.17,0,0,0,.9-.27C72.05,90.83,73,89.77,74.23,88.45ZM88.62,99c-.37,1.76-1.22,3.29-.82,4.37.75,2,2.22,3.82,3.39,5.71l.44-.1c.35-1.94.72-3.87,1-5.82a1.44,1.44,0,0,0-.48-1C91.15,101.2,90.09,100.31,88.62,99Zm-6.53-.21c-3.55,1.85-4.3,4.46-2.51,9.18a32.13,32.13,0,0,0,3.77-4.77c.37-.7-.56-2.08-.89-3.15C82.34,99.68,82.23,99.29,82.09,98.8Zm14-21c1.74-.4,3.47-.27,4.11-1,1.23-1.47,1.83-3.45,2.68-5.22l-.38-.52c-1.56.62-3.44.89-4.56,2S96.85,75.78,96.12,77.84ZM65.17,79.17c1.2,1,2.33,2,3.43,3,1.51,1.34,2.69,1.39,4.41.22C71.48,79.1,69.12,77.51,65.17,79.17Zm28.16,7.56c1.76,1.39,3.21,1.42,5.42.13A4.43,4.43,0,0,0,93.33,86.73Zm-2.54-7c2.35-.79,3-1.59,3-3.91C91.8,77,90.84,78.27,90.79,79.74ZM79.07,82.15c-.27-1.79-1.13-2.38-3.5-2.39C76.44,81.75,77.39,82.4,79.07,82.15ZM80.43,75c.29,1.72.11,3.4,2,4.31C83,77.21,82.53,76.23,80.43,75ZM76.1,91.29c2,.3,3.07-.16,3.22-2.16Z"/></g></g></svg>